<svg width="27" height="24" viewBox="0 0 27 24" fill="none" xmlns="http://www.w3.org/2000/svg">
<path d="M13.3333 19.3333C15 19.3333 16.4167 18.75 17.5833 17.5833C18.75 16.4167 19.3333 15 19.3333 13.3333C19.3333 11.6667 18.75 10.25 17.5833 9.08333C16.4167 7.91667 15 7.33333 13.3333 7.33333C11.6667 7.33333 10.25 7.91667 9.08333 9.08333C7.91667 10.25 7.33333 11.6667 7.33333 13.3333C7.33333 15 7.91667 16.4167 9.08333 17.5833C10.25 18.75 11.6667 19.3333 13.3333 19.3333ZM13.3333 16.6667C12.4 16.6667 11.6111 16.3444 10.9667 15.7C10.3222 15.0556 10 14.2667 10 13.3333C10 12.4 10.3222 11.6111 10.9667 10.9667C11.6111 10.3222 12.4 10 13.3333 10C14.2667 10 15.0556 10.3222 15.7 10.9667C16.3444 11.6111 16.6667 12.4 16.6667 13.3333C16.6667 14.2667 16.3444 15.0556 15.7 15.7C15.0556 16.3444 14.2667 16.6667 13.3333 16.6667ZM2.66667 24C1.93333 24 1.30556 23.7389 0.783333 23.2167C0.261111 22.6944 0 22.0667 0 21.3333V5.33333C0 4.6 0.261111 3.97222 0.783333 3.45C1.30556 2.92778 1.93333 2.66667 2.66667 2.66667H6.86667L8.53333 0.866667C8.77778 0.6 9.07222 0.388889 9.41667 0.233333C9.76111 0.0777778 10.1222 0 10.5 0H16.1667C16.5444 0 16.9056 0.0777778 17.25 0.233333C17.5944 0.388889 17.8889 0.6 18.1333 0.866667L19.8 2.66667H24C24.7333 2.66667 25.3611 2.92778 25.8833 3.45C26.4056 3.97222 26.6667 4.6 26.6667 5.33333V21.3333C26.6667 22.0667 26.4056 22.6944 25.8833 23.2167C25.3611 23.7389 24.7333 24 24 24H2.66667Z" fill="#CFDBEA"/>
</svg>
