<svg width="38" height="38" viewBox="0 0 38 38" fill="none" xmlns="http://www.w3.org/2000/svg">
<path d="M18.9854 31.2076C18.6464 31.2076 18.3059 31.1467 17.9638 31.0249C17.6218 30.9031 17.3209 30.7123 17.061 30.4524L14.7866 28.385C11.9792 25.8253 9.47275 23.3107 7.26724 20.8413C5.06174 18.3719 3.95898 15.7265 3.95898 12.9049C3.95898 10.6578 4.71665 8.77661 6.23198 7.26128C7.74731 5.74595 9.62852 4.98828 11.8756 4.98828C13.1524 4.98828 14.4135 5.28262 15.6589 5.87131C16.9042 6.45999 18.0181 7.41609 19.0006 8.73959C19.9831 7.41609 21.097 6.45999 22.3424 5.87131C23.5877 5.28262 24.8488 4.98828 26.1256 4.98828C28.3727 4.98828 30.2539 5.74595 31.7692 7.26128C33.2846 8.77661 34.0422 10.6578 34.0422 12.9049C34.0422 15.7569 32.9207 18.4318 30.6777 20.9296C28.4346 23.4275 25.9337 25.9207 23.1751 28.4093L20.925 30.4524C20.6651 30.7123 20.3617 30.9031 20.0145 31.0249C19.6674 31.1467 19.3244 31.2076 18.9854 31.2076ZM17.8618 11.145C17.0052 9.83975 16.1034 8.88315 15.1565 8.2752C14.2095 7.66723 13.1159 7.36324 11.8756 7.36324C10.2923 7.36324 8.97283 7.89102 7.91728 8.94658C6.86172 10.0021 6.33395 11.3216 6.33395 12.9049C6.33395 14.1756 6.74347 15.5042 7.56253 16.8906C8.38159 18.2771 9.40973 19.6553 10.6469 21.0255C11.8842 22.3957 13.2244 23.7344 14.6677 25.0417C16.111 26.349 17.4487 27.5639 18.6809 28.6865C18.7722 28.7677 18.8788 28.8083 19.0006 28.8083C19.1224 28.8083 19.229 28.7677 19.3204 28.6865C20.5525 27.5639 21.8903 26.349 23.3335 25.0417C24.7768 23.7344 26.117 22.3957 27.3543 21.0255C28.5915 19.6553 29.6196 18.2771 30.4387 16.8906C31.2578 15.5042 31.6673 14.1756 31.6673 12.9049C31.6673 11.3216 31.1395 10.0021 30.0839 8.94658C29.0284 7.89102 27.7089 7.36324 26.1256 7.36324C24.8853 7.36324 23.7917 7.66723 22.8447 8.2752C21.8978 8.88315 20.996 9.83975 20.1394 11.145C20.0054 11.348 19.8369 11.5002 19.6339 11.6017C19.4309 11.7032 19.2198 11.754 19.0006 11.754C18.7814 11.754 18.5703 11.7032 18.3673 11.6017C18.1643 11.5002 17.9958 11.348 17.8618 11.145Z" fill="#9FACBD"/>
</svg>
