<svg width="23" height="21" viewBox="0 0 23 21" fill="none" xmlns="http://www.w3.org/2000/svg">
<path d="M11.3776 0C13.4347 0 15.3373 0.399994 17.0854 1.19998C18.8335 1.99996 20.2155 3.08778 21.2314 4.46344C22.2472 5.83908 22.7552 7.33955 22.7552 8.96494C22.7552 10.5903 22.2472 12.0929 21.2314 13.4728C20.2155 14.8527 18.8356 15.9426 17.0918 16.7426C15.3479 17.5425 13.4431 17.9426 11.3776 17.9426C10.7257 17.9426 10.0527 17.896 9.35859 17.8029C6.34486 19.8938 4.74066 20.952 4.54594 20.9774C4.45284 21.0113 4.36397 21.0071 4.27931 20.9647C4.24542 20.9393 4.22002 20.9055 4.20309 20.8631C4.18617 20.8208 4.17769 20.7827 4.17769 20.7488V20.6981C4.2285 20.3679 4.61367 18.9923 5.33325 16.5712C3.69941 15.7585 2.40208 14.6813 1.44125 13.3395C0.480417 11.9977 0 10.5395 0 8.96494C0 7.33955 0.507928 5.83908 1.52378 4.46344C2.53964 3.08778 3.92163 1.99996 5.66977 1.19998C7.41787 0.399994 9.32048 0 11.3776 0ZM5.61262 11.3395V7.44112H6.61575C6.75122 7.44112 6.89301 7.39247 7.04114 7.29511C7.18931 7.19775 7.26337 7.06444 7.26337 6.89512C7.26337 6.72581 7.19564 6.58402 7.06022 6.46973C6.92475 6.35545 6.79355 6.29831 6.66656 6.29831H3.36502C3.22111 6.29831 3.08566 6.34064 2.95868 6.4253C2.8317 6.50995 2.76821 6.64964 2.76821 6.84431C2.76821 7.03903 2.83593 7.1872 2.97138 7.28878C3.10683 7.39036 3.2592 7.44112 3.42851 7.44112H4.43166V11.3395C4.43166 11.5511 4.48247 11.7247 4.58405 11.8601C4.68562 11.9955 4.82953 12.0633 5.01577 12.0633C5.20205 12.0633 5.34806 11.9871 5.45386 11.8347C5.5597 11.6823 5.61262 11.5173 5.61262 11.3395ZM11.1109 12.0633C11.4241 11.9448 11.5215 11.6443 11.403 11.1617C11.3691 11.0517 11.13 10.3935 10.6855 9.18713C10.2411 7.9808 9.98503 7.293 9.9173 7.12369C9.68873 6.57342 9.37551 6.29831 8.97764 6.29831C8.54587 6.29831 8.21151 6.57342 7.97447 7.12369C7.90673 7.26759 7.64855 7.96814 7.19986 9.22523C6.75122 10.4824 6.51839 11.1278 6.50147 11.1617C6.44222 11.2379 6.42741 11.3776 6.45703 11.5807C6.48666 11.784 6.57769 11.9236 6.73003 11.9998C6.89934 12.076 7.06444 12.0845 7.22527 12.0252C7.38614 11.9659 7.49616 11.877 7.55541 11.7585L7.86019 10.9205H10.0697C10.1628 11.2252 10.2305 11.4241 10.2728 11.5173C10.3152 11.6019 10.3617 11.6866 10.4125 11.7712C10.4633 11.8559 10.5564 11.9384 10.6919 12.0188C10.8273 12.0993 10.967 12.1141 11.1109 12.0633ZM14.5267 12.0633C14.7045 12.0633 14.8675 12.0083 15.0156 11.8982C15.1638 11.7882 15.2378 11.64 15.2378 11.4538C15.2378 11.2675 15.1701 11.1215 15.0347 11.0157C14.8992 10.9099 14.7299 10.857 14.5267 10.857H13.1172V7.02211C13.1172 6.84431 13.0643 6.67927 12.9585 6.52688C12.8527 6.37448 12.7067 6.29831 12.5204 6.29831C12.3342 6.29831 12.1903 6.36605 12.0887 6.50147C11.9871 6.63694 11.9363 6.81047 11.9363 7.02211V11.3395C11.9363 11.5511 11.9871 11.7247 12.0887 11.8601C12.1903 11.9955 12.3342 12.0633 12.5204 12.0633C12.5289 12.0633 12.5437 12.0612 12.5649 12.057C12.586 12.0527 12.6008 12.0506 12.6093 12.0506C12.6178 12.0506 12.6326 12.0527 12.6538 12.057C12.6749 12.0612 12.6897 12.0633 12.6982 12.0633H14.5267ZM19.5298 11.9744C19.6738 11.8389 19.7457 11.6844 19.7457 11.5109C19.7457 11.3374 19.6907 11.1829 19.5806 11.0475C19.5298 10.9712 18.9965 10.2559 17.9806 8.90142C18.4717 8.40197 18.9669 7.90252 19.4663 7.40306C19.5933 7.27608 19.6716 7.1258 19.7012 6.95227C19.7309 6.77873 19.6822 6.61575 19.5552 6.46341C19.4113 6.32794 19.2568 6.27291 19.0917 6.29831C18.9267 6.32372 18.7722 6.40837 18.6283 6.55228C18.6029 6.57769 18.4928 6.68981 18.2981 6.88875C18.1034 7.08773 17.8515 7.34381 17.5425 7.65703C17.2336 7.97025 16.9605 8.24958 16.7235 8.49511V7.02211C16.7235 6.84431 16.6706 6.67927 16.5648 6.52688C16.459 6.37448 16.313 6.29831 16.1267 6.29831C15.9405 6.29831 15.7965 6.36605 15.695 6.50147C15.5934 6.63694 15.5426 6.81047 15.5426 7.02211V11.3395C15.5426 11.5511 15.5934 11.7247 15.695 11.8601C15.7965 11.9955 15.9405 12.0633 16.1267 12.0633C16.313 12.0633 16.459 11.9871 16.5648 11.8347C16.6706 11.6823 16.7235 11.5173 16.7235 11.3395V10.184C16.7574 10.1501 16.8209 10.0845 16.914 9.98714C17.0071 9.88978 17.0833 9.81145 17.1426 9.7522C17.7013 10.5141 18.2008 11.1871 18.641 11.7712C18.7595 11.9321 18.897 12.0358 19.0537 12.0824C19.2103 12.1289 19.369 12.0929 19.5298 11.9744ZM8.20303 9.77761L8.97764 7.50464L9.7395 9.77761H8.20303Z" fill="black"/>
</svg>
