<svg width="16" height="16" viewBox="0 0 16 16" fill="none" xmlns="http://www.w3.org/2000/svg">
<path d="M7.99968 11.5161L5.23302 13.1828C5.1108 13.2606 4.98302 13.2939 4.84968 13.2828C4.71635 13.2717 4.59968 13.2273 4.49968 13.1495C4.39968 13.0717 4.32191 12.9745 4.26635 12.8578C4.2108 12.7411 4.19968 12.6106 4.23302 12.4661L4.96635 9.31615L2.51635 7.19948C2.40524 7.09948 2.3358 6.98559 2.30802 6.85781C2.28024 6.73003 2.28857 6.60503 2.33302 6.48281C2.37746 6.36059 2.44413 6.26059 2.53302 6.18281C2.62191 6.10503 2.74413 6.05503 2.89968 6.03281L6.13302 5.74948L7.38302 2.78281C7.43857 2.64948 7.52468 2.54948 7.64135 2.48281C7.75802 2.41615 7.87746 2.38281 7.99968 2.38281C8.12191 2.38281 8.24135 2.41615 8.35802 2.48281C8.47469 2.54948 8.5608 2.64948 8.61635 2.78281L9.86635 5.74948L13.0997 6.03281C13.2552 6.05503 13.3775 6.10503 13.4664 6.18281C13.5552 6.26059 13.6219 6.36059 13.6664 6.48281C13.7108 6.60503 13.7191 6.73003 13.6914 6.85781C13.6636 6.98559 13.5941 7.09948 13.483 7.19948L11.033 9.31615L11.7664 12.4661C11.7997 12.6106 11.7886 12.7411 11.733 12.8578C11.6775 12.9745 11.5997 13.0717 11.4997 13.1495C11.3997 13.2273 11.283 13.2717 11.1497 13.2828C11.0164 13.2939 10.8886 13.2606 10.7664 13.1828L7.99968 11.5161Z" fill="#6A42DB"/>
</svg>
